<?xml version="1.0" encoding="UTF-8" standalone="no"?>
<!DOCTYPE svg PUBLIC "-//W3C//DTD SVG 1.1//EN" "http://www.w3.org/Graphics/SVG/1.1/DTD/svg11.dtd">
<svg width="100%" height="100%" viewBox="0 0 25 25" version="1.1" xmlns="http://www.w3.org/2000/svg" xmlns:xlink="http://www.w3.org/1999/xlink" xml:space="preserve" xmlns:serif="http://www.serif.com/" style="fill-rule:evenodd;clip-rule:evenodd;stroke-linecap:round;stroke-linejoin:round;">
    <g id="Artboard1" transform="matrix(1,0,0,0.984204,0,0)">
        <rect x="0" y="0" width="25" height="25" style="fill:none;"/>
        <g transform="matrix(1,0,0,1.01605,0.499988,0.307409)">
            <path d="M10.341,9.092C10.199,9.025 10.043,8.994 9.886,9.001C9.73,9.008 9.577,9.052 9.441,9.131C9.309,9.205 9.198,9.313 9.121,9.444C9.043,9.574 9.002,9.723 9,9.875L9,14.124C9.001,14.276 9.043,14.425 9.12,14.555C9.197,14.686 9.308,14.794 9.44,14.869C9.576,14.947 9.729,14.992 9.885,14.999C10.042,15.005 10.198,14.974 10.34,14.908L14.327,13.025C14.527,12.938 14.696,12.795 14.816,12.612C14.935,12.43 14.999,12.218 14.999,12C14.999,11.782 14.935,11.569 14.816,11.387C14.696,11.205 14.527,11.062 14.327,10.975L10.341,9.092Z" style="fill:none;fill-rule:nonzero;stroke:black;stroke-width:1.87px;"/>
            <path d="M5.279,3L18.721,3C18.721,3 19.5,3 19.5,3.779L19.5,20.221C19.5,20.221 19.5,21 18.721,21L5.279,21C5.279,21 4.5,21 4.5,20.221L4.5,3.779C4.5,3.779 4.5,3 5.279,3Z" style="fill:none;fill-rule:nonzero;stroke:black;stroke-width:1.87px;"/>
            <path d="M1.934,5.25C1.777,5.251 1.623,5.283 1.478,5.344C1.334,5.405 1.203,5.493 1.093,5.605C0.984,5.716 0.897,5.848 0.838,5.993C0.779,6.138 0.749,6.293 0.75,6.45L0.75,17.55C0.749,17.706 0.779,17.862 0.838,18.007C0.897,18.152 0.984,18.284 1.093,18.395C1.203,18.507 1.334,18.595 1.478,18.656C1.623,18.717 1.777,18.749 1.934,18.75" style="fill:none;fill-rule:nonzero;stroke:black;stroke-width:1.87px;"/>
            <path d="M22.066,5.25C22.223,5.251 22.377,5.283 22.522,5.344C22.666,5.405 22.797,5.493 22.907,5.605C23.017,5.716 23.103,5.848 23.162,5.993C23.221,6.138 23.251,6.293 23.25,6.45L23.25,17.55C23.251,17.706 23.221,17.862 23.162,18.007C23.103,18.152 23.017,18.284 22.907,18.395C22.797,18.507 22.666,18.595 22.522,18.656C22.377,18.717 22.223,18.749 22.066,18.75" style="fill:none;fill-rule:nonzero;stroke:black;stroke-width:1.87px;"/>
        </g>
    </g>
</svg>
